<svg width="18" height="10" viewBox="0 0 18 10" fill="none" xmlns="http://www.w3.org/2000/svg">
<path d="M9.48899 6.37405L15.4432 0.419847C15.7231 0.139948 16.0793 -6.6012e-07 16.5119 -6.79028e-07C16.9445 -6.97936e-07 17.3007 0.139948 17.5806 0.419847C17.8605 0.699744 18.0004 1.05598 18.0004 1.48855C18.0004 1.92112 17.8605 2.27735 17.5806 2.55725L10.5577 9.58015C10.405 9.73282 10.2396 9.84097 10.0615 9.90458C9.88339 9.96819 9.69255 10 9.48899 10C9.28543 10 9.09459 9.96819 8.91647 9.90458C8.73835 9.84097 8.57296 9.73282 8.42029 9.58015L1.39739 2.55725C1.11749 2.27735 0.977539 1.92112 0.977539 1.48855C0.977539 1.05598 1.11749 0.699745 1.39739 0.419847C1.67728 0.139949 2.03352 -4.61583e-08 2.46609 -6.50666e-08C2.89866 -8.39748e-08 3.25489 0.139949 3.53479 0.419847L9.48899 6.37405Z" fill="#192442"/>
</svg>
