<svg xmlns="http://www.w3.org/2000/svg" width="100" height="100" fill="none" xmlns:v="https://vecta.io/nano"><mask id="A" maskUnits="userSpaceOnUse" x="0" y="0" width="100" height="101" mask-type="alpha"><path fill="#d9d9d9" d="M0 0h100v100.004H0z"/></mask><g mask="url(#A)"><path d="M23.614 71.903l.615.721.753-.576c3.456-2.643 7.322-4.73 11.604-6.259 4.264-1.523 8.733-2.286 13.414-2.286s9.15.763 13.414 2.286c4.282 1.529 8.148 3.616 11.604 6.259l.753.576.615-.721c2.508-2.938 4.459-6.269 5.853-9.986 1.399-3.73 2.095-7.704 2.095-11.914 0-9.5-3.351-17.62-10.032-24.302S59.499 15.668 50 15.668s-17.619 3.351-24.301 10.033-10.032 14.802-10.032 24.302c0 4.21.696 8.184 2.095 11.914 1.394 3.717 3.345 7.048 5.853 9.986zm46.357 5.987l1.079-.802-1.079-.802c-2.796-2.079-5.878-3.674-9.242-4.783-3.372-1.112-6.95-1.665-10.73-1.665s-7.358.553-10.73 1.665a32.37 32.37 0 0 0-9.242 4.783l-1.079.802 1.079.802a32.37 32.37 0 0 0 9.242 4.783c3.372 1.112 6.951 1.665 10.73 1.665s7.358-.553 10.73-1.665c3.364-1.109 6.446-2.704 9.242-4.783zM50 53.169c-3.841 0-7.039-1.307-9.657-3.926s-3.926-5.817-3.926-9.658 1.307-7.039 3.926-9.658 5.817-3.926 9.657-3.926 7.039 1.307 9.657 3.926 3.926 5.817 3.926 9.658-1.307 7.039-3.926 9.658-5.816 3.926-9.657 3.926zm0 37.502c-5.634 0-10.915-1.068-15.854-3.2-4.958-2.14-9.261-5.038-12.918-8.695s-6.556-7.96-8.695-12.919c-2.131-4.939-3.199-10.22-3.199-15.854s1.068-10.915 3.199-15.855c2.14-4.959 5.038-9.262 8.695-12.919s7.96-6.556 12.918-8.696c4.939-2.131 10.22-3.2 15.854-3.2s10.915 1.068 15.854 3.2c4.958 2.14 9.261 5.038 12.918 8.696s6.556 7.96 8.695 12.919c2.131 4.939 3.199 10.221 3.199 15.855s-1.068 10.915-3.199 15.854c-2.139 4.959-5.038 9.262-8.695 12.919s-7.96 6.556-12.918 8.695c-4.939 2.131-10.22 3.2-15.854 3.2zm0-43.835c2.047 0 3.802-.679 5.186-2.064s2.064-3.139 2.064-5.186-.679-3.802-2.064-5.186-3.139-2.064-5.186-2.064-3.802.679-5.186 2.064-2.064 3.139-2.064 5.186.679 3.802 2.064 5.186 3.139 2.064 5.186 2.064z" fill="#f9f9f9" stroke="#192442" stroke-width="2"/></g></svg>