<svg xmlns="http://www.w3.org/2000/svg" width="45" height="46" fill="none" xmlns:v="https://vecta.io/nano"><mask id="A" maskUnits="userSpaceOnUse" x="0" y="0" width="45" height="46" mask-type="alpha"><path fill="#d9d9d9" d="M0 .5h45v45H0z"/></mask><g mask="url(#A)"><path d="M7.5 34.25c-.531 0-.977-.18-1.336-.539s-.539-.805-.539-1.336.18-.977.539-1.336.805-.539 1.336-.539h30c.531 0 .977.18 1.336.539s.539.805.539 1.336-.18.977-.539 1.336-.805.539-1.336.539h-30zm0-9.375c-.531 0-.977-.18-1.336-.539s-.539-.805-.539-1.336.18-.977.539-1.336.805-.539 1.336-.539h30c.531 0 .977.18 1.336.539s.539.805.539 1.336-.18.977-.539 1.336-.805.539-1.336.539h-30zm0-9.375c-.531 0-.977-.18-1.336-.539s-.539-.805-.539-1.336.18-.977.539-1.336.805-.539 1.336-.539h30c.531 0 .977.18 1.336.539s.539.805.539 1.336-.18.977-.539 1.336-.805.539-1.336.539h-30z" fill="#192442"/></g></svg>