<svg xmlns="http://www.w3.org/2000/svg" width="45" height="46" fill="none" xmlns:v="https://vecta.io/nano"><rect y=".5" width="45" height="45" rx="5" fill="#192442"/><path d="M17.235 41.571h-.099l-4.423-2.634c-.089-.054-.136-.133-.136-.24L12.5 13.588a.3.3 0 0 1 .136-.218l15.173-8.941c.053 0 1.559.886 4.519 2.654l.04.041.04.019v.019h.018l.04.079.019 3.033c-.012.107-.059.187-.136.24l-12.407 7.325v2.296l7.907-4.63c.04 0 .805.443 2.299 1.328l2.241 1.347h.019v.019l.028.028c.006.006.012.009.018.009s.009.006.009.019l.018.101h.019v2.995c0 .092-.046.168-.136.218l-12.389 7.344.018 10.918c0 .092-.046.168-.136.218l-2.63 1.518.006.003zm-.275-.74l-.059-24.451-3.858-2.315.059 24.47 3.858 2.296zm.194-24.928l14.509-8.584-3.858-2.296-14.512 8.584 3.858 2.296h.003zm2.806 9.441l11.744-6.945-3.858-2.315-7.889 4.671v4.589h.003z" fill="#7ceec5"/></svg>