<svg xmlns="http://www.w3.org/2000/svg" width="44" height="34" fill="#192442" xmlns:v="https://vecta.io/nano"><path d="M4.848.979H.027C-.166 3.036.606 7.536 4.848 9.85c2.55 1.391 4.432 1.565 6.172 1.543 1.875-.024 3.777-.342 5.979-1.543 3.453-1.884 4.371-6.621 4.436-8.871h-4.629c-.257 1.864-1.851 5.593-6.171 5.593S4.977 2.844 4.848.979zm22.566 15.456v-4.821c-2.057-.193-6.557.579-8.872 4.821-1.391 2.55-1.565 4.432-1.543 6.172.024 1.875.342 3.777 1.543 5.979 1.884 3.453 6.622 4.371 8.872 4.436v-4.628c-1.864-.257-5.593-1.851-5.593-6.171s3.729-5.657 5.593-5.786zM44 28.392c-1.864-.257-5.98-1.493-5.98-5.813V11.587l-4.821.097v11.861c.024 1.875.73 2.84 1.93 5.041 1.884 3.453 6.621 4.371 8.871 4.436v-4.628z"/></svg>